<?xml version="1.0" standalone="no"?>
<!DOCTYPE svg PUBLIC "-//W3C//DTD SVG 20010904//EN"
 "http://www.w3.org/TR/2001/REC-SVG-20010904/DTD/svg10.dtd">
<svg version="1.0" xmlns="http://www.w3.org/2000/svg"
 width="256.000000pt" height="256.000000pt" viewBox="0 0 256.000000 256.000000"
 preserveAspectRatio="xMidYMid meet">
<metadata>
Created by potrace 1.14, written by Peter Selinger 2001-2017
</metadata>
<g transform="translate(0.000000,256.000000) scale(0.100000,-0.100000)"
fill="#000000" stroke="none">
<path d="M1138 2555 c-2 -1 -21 -5 -43 -8 -151 -18 -331 -83 -475 -170 -309
-188 -532 -507 -601 -862 -21 -105 -18 -379 4 -485 97 -456 424 -826 853 -964
155 -50 211 -59 379 -60 178 -1 226 4 345 34 472 121 832 501 937 991 25 119
25 392 -1 504 -106 461 -414 810 -846 958 -78 27 -87 29 -208 51 -63 11 -334
20 -344 11z"/>
</g>
</svg>
